<svg xmlns="http://www.w3.org/2000/svg" viewBox="0 0 48 48" width="24" height="24" fill-rule="evenodd"><path fill="#283593" d="M22.903 3.286c.68-.38 1.515-.38 2.193 0l16.807 9.434A2.12 2.12 0 0 1 43 14.566v18.867c0 .762-.418 1.466-1.097 1.847l-16.807 9.434c-.68.38-1.515.38-2.193 0L6.096 35.28A2.12 2.12 0 0 1 5 33.434V14.567c0-.762.418-1.466 1.097-1.847l16.806-9.434z"/><path fill="#5c6bc0" d="M5.304 34.404C5.038 34.048 5 33.7 5 33.255v-18.76c0-.758.417-1.458 1.094-1.836l16.748-9.38c.677-.38 1.594-.37 2.27.008l16.714 9.33a2.09 2.09 0 0 1 .66.576L5.304 34.404z"/><path fill="#fff" d="M24 10a14.01 14.01 0 0 1 14 14 14.01 14.01 0 0 1-14 14 14.01 14.01 0 0 1-14-14 14.01 14.01 0 0 1 14-14zm0 7c3.863 0 7 3.136 7 7s-3.137 7-7 7-7-3.137-7-7 3.136-7 7-7z"/><path fill="#3949ab" d="M42.485 13.205c.516.483.506 1.21.506 1.784L43 33.373c.004.396-.127.813-.323 1.127L23.593 24l18.892-10.795z"/></svg>