<svg xmlns="http://www.w3.org/2000/svg" viewBox="0 0 48 48" width="24" height="24"><path d="M23.65 24.898c-.998-1.6-1.722-2.943-2.725-5.455C19.23 15.2 31.24 11.366 26.37 4c2.1 5.1-7.577 8.235-8.477 12.473-.823 3.898 5.752 8.426 5.757 8.426zm.228-7.628c-.192 2.516 2.23 3.857 2.3 5.695.056 1.496-1.447 2.743-1.447 2.743s2.728-.536 3.58-2.818c.945-2.534-1.834-4.27-1.548-6.298.267-1.938 6.03-5.543 6.03-5.543s-8.48.562-8.914 6.22z" fill="#f44336"/><g fill="#1565c0"><path d="M32.084 25.055c1.754-.394 3.233.723 3.233 2 0 2.9-4.02 5.643-4.02 5.643s6.225-.742 6.225-5.505c0-3.15-3.057-3.937-5.437-2.148zm-2.955 2.34l2.458-1.902c-4.763 1.01-15.638 1.147-15.638.27 0-.81 3.507-1.638 3.507-1.638s-7.773-.112-7.773 2.18c0 2.4 10.175 2.56 17.446 1.1z"/><path d="M27.935 29.57c-4.5 1.5-12.814 1.02-10.354-.993-1.198 0-2.974.963-2.974 1.9 0 1.857 8.982 3.3 15.63.572l-2.302-1.468zm-9.25 3.17c-1.636 0-2.695 1.054-2.695 1.822 0 2.4 9.76 2.632 13.627.205l-2.458-1.632c-2.9 1.27-10.146 1.445-8.474-.395zm17.594 3.892c0-.936-1.055-1.377-1.433-1.588C37.076 40.417 12.53 40 12.53 36.828c0-.72 1.807-1.427 3.477-1.093l-1.42-.84C11.26 34.374 9 35.837 9 37.017c0 5.503 27.28 5.238 27.28-.385zM39 38.604C34.854 42.7 24.34 44.2 13.77 41.66c10.57 4.504 25.18 1.968 25.23-3.056z"/></g></svg>