<svg xmlns="http://www.w3.org/2000/svg" width="21.333" height="21.333" viewBox="0 0 16 16"><g fill="#EF717A"><path d="M6.008.313A2.35 2.35 0 0 0 3.66 2.66v.03S1.313 3.742 1.313 5.04c0 .473.14.9.38 1.277a2.345 2.345 0 0 0-1.38 2.136 2.35 2.35 0 0 0 1.266 2.086c-.168.32-.266.688-.266 1.078a2.35 2.35 0 0 0 1.293 2.098c.238 1.117 1.53 1.973 3.1 1.973.902 0 1.734-.3 2.305-.758L7.98 1.387A2.35 2.35 0 0 0 6.008.313zm0 0"/><path d="M15.688 8.453c0-.95-.566-1.77-1.38-2.137a2.34 2.34 0 0 0 .38-1.277c0-1.297-2.348-2.367-2.348-2.38A2.35 2.35 0 0 0 9.992.313c-.84 0-1.598.4-2.012 1.074-.008-.008.012 13.547.02 13.543.57.465 1.395.758 2.305.758 1.56 0 2.852-.855 3.1-1.973a2.35 2.35 0 0 0 1.293-2.098c0-.39-.098-.758-.266-1.078a2.35 2.35 0 0 0 1.266-2.086zm-5.434-5.727a.78.78 0 0 1 0 1.566.782.782 0 0 1 0-1.565zm-1 4.68a.78.78 0 1 1 1.563 0 .78.78 0 1 1-1.562 0zm1.25 6.168a.783.783 0 0 1 0-1.565c.428 0 .785.352.785.78s-.352.785-.785.785zm1.754-2.69a.78.78 0 1 1 0-1.566.78.78 0 1 1 0 1.566zm0 0"/></g><path d="M11.035 3.512a.781.781 0 1 0-1.562 0 .782.782 0 1 0 1.563 0zm2.005 6.586a.781.781 0 1 0-1.562 0 .782.782 0 1 0 1.563 0zm-2.224-2.692a.781.781 0 1 0-1.562 0 .782.782 0 1 0 1.563 0zM11.3 12.8c0-.43-.352-.78-.785-.78a.78.78 0 0 0-.78.78.79.79 0 0 0 .78.785.79.79 0 0 0 .785-.785zm0 0" fill="#F6931E"/><path d="M16 8.453c0-.926-.484-1.78-1.262-2.262A2.66 2.66 0 0 0 15 5.039c0-1.148-1.426-2.086-2.355-2.57A2.672 2.672 0 0 0 9.992 0C9.2 0 8.473.32 7.977.875A2.64 2.64 0 0 0 6.008 0a2.69 2.69 0 0 0-2.273 1.281c-.22.363-.352.78-.38 1.203l-.207.117a7.5 7.5 0 0 0-.844.527C1.44 3.754 1 4.398 1 5.04a2.66 2.66 0 0 0 .262 1.152A2.66 2.66 0 0 0 0 8.453a2.65 2.65 0 0 0 1.18 2.211c-.117.305-.18.63-.18.953a2.65 2.65 0 0 0 1.336 2.309C2.684 15.137 4.066 16 5.695 16c.844 0 1.668-.246 2.305-.684.63.44 1.438.684 2.305.684 1.63 0 3.012-.863 3.36-2.074A2.65 2.65 0 0 0 15 11.617c0-.324-.062-.648-.18-.953A2.65 2.65 0 0 0 16 8.453zM2.9 13.648a.308.308 0 0 0-.164-.215 2.013 2.013 0 0 1-1.027-1.215 1.84 1.84 0 0 0 .836.195c.426 0 .86-.156 1.188-.426a.32.32 0 0 0 .043-.437.316.316 0 0 0-.437-.043c-.227.184-.5.28-.793.28a1.25 1.25 0 0 1-.914-.395 1.94 1.94 0 0 1 .215-.715.31.31 0 0 0-.133-.418 2.04 2.04 0 0 1 .106-3.658c.082-.04.145-.1.168-.2s.012-.18-.035-.258a2.01 2.01 0 0 1-.328-1.105c0-.738 1.066-1.48 1.773-1.867a2.66 2.66 0 0 0 1.039 1.637.32.32 0 0 0 .438-.066.312.312 0 0 0-.066-.437 2.06 2.06 0 0 1-.62-2.555A2.065 2.065 0 0 1 6.01.625a2.03 2.03 0 0 1 1.66.859V3.2H5.93a.31.31 0 0 0-.289.195.31.31 0 0 0 .066.34 1.25 1.25 0 0 1 0 1.77 1.28 1.28 0 0 1-1.77 0 .314.314 0 0 0-.44 0 .31.31 0 0 0 0 .445c.047.047.098.1.148.133l-.8.813a1.096 1.096 0 0 0 0 1.547 1.115 1.115 0 0 0 1.55 0c.12-.12.12-.316 0-.44s-.32-.12-.445 0a.483.483 0 0 1-.664 0 .47.47 0 0 1 0-.664L4.2 6.4c.012-.012.328.078.367.082a1.9 1.9 0 0 0 1.57-.531c.574-.574.7-1.43.375-2.125h1.145l.004 3.258h-.766v-.082a.312.312 0 1 0-.624.001v.785a.313.313 0 0 0 .626.001v-.07h.766l.004 2.066H6.8a1.125 1.125 0 0 0-.254-.398 1.083 1.083 0 0 0-.773-.32 1.09 1.09 0 0 0-.777.32.31.31 0 0 0 .004.44c.12.12.316.12.44 0 .414-.414 1.094.234.664.664-.12.125-.12.32 0 .44s.32.12.44 0c.148-.148.246-.332.3-.523h.84l.004 2.008h-2.45a.28.28 0 0 0-.22.1 1.1 1.1 0 0 0 0 1.551c.414.414 1.137.4 1.547 0 .125-.125.125-.32 0-.44s-.32-.125-.44 0a.49.49 0 0 1-.664 0 .47.47 0 0 1-.07-.574h2.3l.008 1.73c-.54.383-1.254.602-1.992.602-1.375 0-2.574-.742-2.785-1.727zm11.367-3.387a.31.31 0 0 0-.133.418c.152.293.23.6.23.938a2.02 2.02 0 0 1-1.121 1.816.303.303 0 0 0-.164.215c-.2.984-1.4 1.727-2.785 1.727-.746 0-1.465-.22-1.992-.602l-.004-1.73h1.13c.117.48.55.844 1.066.844a1.1 1.1 0 0 0 1.098-1.098 1.1 1.1 0 0 0-1.098-1.094 1.09 1.09 0 0 0-1.027.723H8.3l.005-2.018h2.902a1.1 1.1 0 0 0 1.051.785 1.1 1.1 0 0 0 1.094-1.098 1.095 1.095 0 0 0-2.144-.314H8.305L8.3 7.72h.684a1.1 1.1 0 0 0 1.051.781c.605 0 1.094-.492 1.094-1.094a1.1 1.1 0 0 0-1.094-1.097 1.1 1.1 0 0 0-1.051.785H8.3l-.004-3.258H9.2c.137.445.555.77 1.043.77.605 0 1.094-.492 1.094-1.094a1.1 1.1 0 0 0-1.094-1.098c-.5 0-.922.34-1.05.797h-.906l-.004-1.73c.37-.54 1-.855 1.7-.855a2.04 2.04 0 0 1 2.035 2.035c0 .195.152.27.215.305 1.336.676 2.133 1.45 2.133 2.074 0 .78-.512 1.695-1.363 1.723-.086.004-.16.04-.22.098s-.086.14-.086.227.04.156.098.215a.31.31 0 0 0 .215.086c.53-.06 1.04-.254 1.387-.668a2.05 2.05 0 0 1 .969 1.734 2.04 2.04 0 0 1-1.098 1.809zm-3.773 2.06a.471.471 0 1 1 0 .941.471.471 0 1 1 0-.941zm1.285-2.223a.47.47 0 0 1 .469-.469.47.47 0 0 1 .469.469c0 .258-.2.473-.47.473a.47.47 0 0 1-.469-.473zm-2.223-2.7a.47.47 0 1 1 .469.468.47.47 0 0 1-.469-.469zm.22-3.895a.47.47 0 1 1 .469.468.47.47 0 0 1-.469-.469zM4.14 10.36a.31.31 0 0 0-.238.082.31.31 0 0 0-.102.203.316.316 0 0 0 .074.23.31.31 0 0 0 .211.109h.027c.078 0 .152-.03.2-.082s.094-.125.098-.203a.314.314 0 0 0-.28-.34zm7.962-3.96a.32.32 0 0 0-.215-.086c-.086 0-.168.035-.227.094s-.1.14-.086.223.035.164.094.22.137.1.22.1a.32.32 0 0 0 .223-.094.31.31 0 0 0-.008-.441zm0 0" fill="#000"/></svg>