<svg xmlns="http://www.w3.org/2000/svg" width="21.333" height="21.333" viewBox="0 0 16 16"><path d="M8 0a4.34 4.34 0 0 0-4.332 4.332V7c0 .184.148.332.332.332h1.332A.335.335 0 0 0 5.668 7V4.332a2.33 2.33 0 1 1 4.664 0v1.336c0 .184.152.332.336.332H12a.331.331 0 0 0 .332-.332V4.332A4.34 4.34 0 0 0 8 0zm0 0" fill="#455A64"/><path d="M4 6.668h8c.922 0 1.668.746 1.668 1.664v6c0 .922-.746 1.668-1.668 1.668H4a1.667 1.667 0 0 1-1.668-1.668v-6c0-.918.746-1.664 1.668-1.664zm0 0" fill="#FFC107"/><path d="M9.668 10.332a1.67 1.67 0 0 0-1.66-1.672 1.667 1.667 0 0 0-1.676 1.66 1.67 1.67 0 0 0 .93 1.5l-.258 1.8a.33.33 0 0 0 .281.375.19.19 0 0 0 .047.004h1.336a.334.334 0 0 0 .336-.328c0-.02 0-.035-.004-.05l-.258-1.8c.563-.28.922-.855.926-1.488zm0 0" fill="#455A64"/></svg>