<svg xmlns="http://www.w3.org/2000/svg" width="21.333" height="21.333" viewBox="0 0 16 16"><g fill-rule="evenodd"><path d="M15.688 3.602V1.004a.69.69 0 0 0-.69-.69H1.004a.69.69 0 0 0-.691.691v2.598zm0 0" fill="#FF7D95"/><path d="M2.934 10.62A5.07 5.07 0 0 1 8 5.555a5.07 5.07 0 0 1 4.324 7.711h2.672c.38 0 .69-.312.69-.69V3.602H.313v8.973c0 .38.31.69.69.69h2.672a5.034 5.034 0 0 1-.742-2.645zm0 0" fill="#FFF"/><path d="M6.31 8.695c0-.746.613-1.36 1.36-1.36h.66c.75 0 1.363.613 1.363 1.36v1.117h.156a.52.52 0 0 1 .516.52v1.19c0 1.3-1.062 2.367-2.363 2.367s-2.367-1.066-2.367-2.367v-1.19a.52.52 0 0 1 .52-.52h.156zm6.758 1.926A5.07 5.07 0 0 0 8 5.555a5.07 5.07 0 0 0-5.066 5.066c0 .97.27 1.875.742 2.645a5.068 5.068 0 0 0 8.648 0 5.07 5.07 0 0 0 .742-2.645zm0 0" fill="#A0E5A5"/><path d="M9.69 9.813H6.15a.52.52 0 0 0-.52.52v1.19c0 1.3 1.066 2.367 2.367 2.367s2.363-1.066 2.363-2.367v-1.19a.52.52 0 0 0-.516-.52zm0 0" fill="#FFEC80"/><path d="M9.69 8.695c0-.746-.613-1.36-1.363-1.36h-.66c-.746 0-1.36.613-1.36 1.36v1.117H9.69zm0 0" fill="#A0E5A5"/></g><g fill="#000"><path d="M12.117 2.27a.312.312 0 1 0 .001-.625h-.004a.31.31 0 0 0-.309.313c0 .172.14.313.313.313zm1.688 0a.312.312 0 1 0 .001-.625H13.8a.313.313 0 1 0 .004.626zm-3.375 0a.312.312 0 1 0-.311-.312c0 .173.14.313.313.313zm-8.235 0H6.9a.312.312 0 1 0 .001-.625H2.195a.313.313 0 0 0 .001.626zm0 0"/><path d="M14.996 0H1.004C.45 0 0 .45 0 1.004v11.57a1.01 1.01 0 0 0 1.004 1.004h2.5a5.47 5.47 0 0 0 .691.848A5.35 5.35 0 0 0 8 16a5.35 5.35 0 0 0 3.805-1.574 5.86 5.86 0 0 0 .691-.848h2.5c.555 0 1.004-.453 1.004-1.004V1.004C16 .45 15.55 0 14.996 0zM1.004.625h13.992a.38.38 0 0 1 .38.38V3.3H.625V1.004a.38.38 0 0 1 .38-.38zm13.992 12.328h-2.148a5.39 5.39 0 0 0-1.043-6.137 5.33 5.33 0 0 0-3.1-1.527 5.406 5.406 0 0 0-3.316.625.31.31 0 0 0-.125.422.316.316 0 0 0 .426.125 4.767 4.767 0 0 1 5.664.797 4.762 4.762 0 0 1 0 6.723 4.73 4.73 0 0 1-3.363 1.395 4.724 4.724 0 0 1-3.363-1.395 4.78 4.78 0 0 1-.8-5.66c.086-.148.03-.34-.12-.426s-.34-.027-.426.125c-.55 1-.773 2.18-.62 3.316a5.42 5.42 0 0 0 .48 1.617H1.004a.38.38 0 0 1-.379-.379v-8.66h14.75v8.66a.38.38 0 0 1-.379.379zM8 12.422c.172 0 .313-.14.313-.312v-.746a.312.312 0 1 0-.624.001v.746c0 .172.14.313.313.313zm0 0"/><path d="M8 14.203a2.68 2.68 0 0 0 2.676-2.68v-1.2a.83.83 0 0 0-.672-.816v-.82c0-.922-.75-1.672-1.676-1.672h-.66c-.922 0-1.672.75-1.672 1.672v.82a.826.826 0 0 0-.676.816v1.2A2.684 2.684 0 0 0 8 14.203zM6.62 8.695a1.05 1.05 0 0 1 1.047-1.047h.66a1.05 1.05 0 0 1 1.051 1.047V9.5H6.62zm-.676 1.637c0-.113.098-.207.207-.207h3.695c.1 0 .203.094.203.207v1.2a2.054 2.054 0 0 1-2.05 2.055 2.06 2.06 0 0 1-2.055-2.055zm-1.75-3.516a.314.314 0 0 0 0 .44.31.31 0 0 0 .223.094c.078 0 .16-.03.22-.094h.004c.12-.12.12-.32 0-.44a.32.32 0 0 0-.445 0zm0 0"/></g></svg>