<svg xmlns="http://www.w3.org/2000/svg" width="21.333" height="21.333" viewBox="0 0 16 16"><style>.B{fill:#02a9f4}.C{fill:#3f51b5}</style><path d="M4.266 3.734a.8.8 0 0 1-.801.801.8.8 0 1 1 0-1.602.8.8 0 0 1 .801.801zm8.8 8.532a.801.801 0 1 1-1.602 0 .801.801 0 1 1 1.602 0zm0 0" class="B"/><path d="M2.668 13.066h1.598V15.2H2.668zm0 0" class="C"/><path d="M.535 8.8h5.863c.148 0 .27.117.27.266v4.266a.27.27 0 0 1-.27.27H.535a.27.27 0 0 1-.27-.27V9.066c0-.148.12-.266.27-.266zm0 0" fill="#607D8B"/><path d="M.535 8.8h5.066c.145 0 .266.117.266.266v4.266a.27.27 0 0 1-.266.27H.535a.27.27 0 0 1-.27-.27V9.066c0-.148.12-.266.27-.266zm0 0" fill="#CFD8DC"/><path d="M5.602 15.2v.535h-4.27V15.2a.54.54 0 0 1 .535-.531h3.2a.54.54 0 0 1 .535.531zm0 0" fill="#283593"/><path d="M4.8 15.2v.535H1.33V15.2a.54.54 0 0 1 .535-.531h2.398c.297 0 .535.238.535.53zm0 0" class="C"/><path d="M15.734 3.734a3.47 3.47 0 0 1-3.469 3.465A3.465 3.465 0 0 1 8.8 3.734 3.47 3.47 0 0 1 12.266.266a3.47 3.47 0 0 1 3.469 3.469zm0 0" class="B"/><path d="M2.5 12.3c-.098-.04-.2-.02-.3.055a.24.24 0 0 0-.055.1c-.012.045-.023.066-.023.102a.264.264 0 0 0 .368.243.68.68 0 0 0 .1-.055.274.274 0 0 0 0-.38.24.24 0 0 0-.1-.055zm.777.054c-.105.105-.102.273 0 .375s.273.105.38 0 .102-.27 0-.375a.282.282 0 0 0-.38 0zm1.157-.054c-.035.012-.062.03-.1.055a.274.274 0 0 0 0 .38.24.24 0 0 0 .1.055c.063.03.137.03.2 0a.417.417 0 0 0 .1-.055.274.274 0 0 0 0-.38.283.283 0 0 0-.3-.055zM15.8 2.56A3.713 3.713 0 0 0 12.266 0a3.73 3.73 0 0 0-3.539 2.559c-.102.305-.16.605-.18.906h-4.05a1.066 1.066 0 0 0-2.093.177c-.043.517.293.992.797 1.12v3.773H.535a.53.53 0 0 0-.535.53v4.266c0 .297.238.535.535.535h1.863v.53h-.53c-.44.004-.8.36-.8.8v.535a.264.264 0 0 0 .266.266h4.27a.264.264 0 0 0 .266-.265V15.2c0-.44-.36-.797-.8-.8h-.53v-.53h1.863a.533.533 0 0 0 .535-.535v-.797h4.305c.13.5.602.836 1.12.793a1.06 1.06 0 0 0 .969-.969 1.063 1.063 0 0 0-.793-1.12v-3.79a3.74 3.74 0 0 0 3.27-2.531c.258-.77.258-1.6.008-2.348zm-2.094-.16h-1.18V.582c.516.184.957.887 1.18 1.816zM12 .582v1.816h-1.18c.22-.93.66-1.633 1.18-1.816zm0 2.352v1.613h-1.277a5.87 5.87 0 0 1 0-1.613zM10.824 5.08H12v1.805c-.516-.184-.953-.875-1.176-1.805zm-.64-.53H9.176a3.073 3.073 0 0 1-.004-1.615h1.008a6.8 6.8 0 0 0 .004 1.613zm.1.53a4.26 4.26 0 0 0 .63 1.547A3.218 3.218 0 0 1 9.379 5.08zm2.262 1.805V5.078h1.176c-.223.93-.66 1.62-1.176 1.805zm0-2.336V2.934h1.277a5.734 5.734 0 0 1-.004 1.613zm1.816-1.613h1.012a3.14 3.14 0 0 1-.004 1.613h-1.008a6.595 6.595 0 0 0 0-1.613zm.82-.535h-.9a4.32 4.32 0 0 0-.629-1.555c.68.324 1.223.875 1.54 1.555zM10.902.844a4.33 4.33 0 0 0-.633 1.555h-.906c.313-.68.86-1.23 1.54-1.555zm-7.97 2.9a.53.53 0 0 1 .53-.535.54.54 0 0 1 .538.535.53.53 0 0 1-.535.53.53.53 0 0 1-.531-.531zm2.4 11.466v.266h-3.73V15.2c0-.145.117-.266.266-.266h3.2c.148 0 .266.12.266.266zM4 14.398H2.934v-.53H4zm.266-1.066H.535V9.066h5.863v4.266zM6.4 8.535H3.734V4.762A1.07 1.07 0 0 0 4.496 4h4.05a3.45 3.45 0 0 0 .18.9A3.74 3.74 0 0 0 12 7.453v3.785a1.06 1.06 0 0 0-.762.762H6.934V9.066a.53.53 0 0 0-.535-.53zm6.402 3.73a.533.533 0 0 1-.535.535.53.53 0 0 1 .001-1.066.53.53 0 0 1 .535.53zm.832-5.64a4.34 4.34 0 0 0 .625-1.547h.906a3.22 3.22 0 0 1-1.531 1.547zm0 0" fill="#000"/></svg>