<svg xmlns="http://www.w3.org/2000/svg" width="21.333" height="21.333" viewBox="0 0 16 16"><path d="M16 8A8 8 0 1 1 0 8a8 8 0 1 1 16 0zm0 0" fill="#6DA544"/><path d="M8 3.13L14.61 8 8 12.87 1.39 8zm0 0" fill="#FFDA44"/><path d="M10.78 8a2.781 2.781 0 0 1-5.56 0 2.78 2.78 0 0 1 5.56 0zm0 0" fill="#F0F0F0"/><path d="M6.6 7.824a4.68 4.68 0 0 0-1.39.21A2.798 2.798 0 0 0 8 10.78c.94 0 1.773-.47 2.277-1.184a4.686 4.686 0 0 0-3.668-1.773zm4.12.706c.035-.172.05-.348.05-.53a2.78 2.78 0 0 0-5.339-1.096 5.78 5.78 0 0 1 1.168-.121c1.617 0 3.078.672 4.12 1.75zm0 0" fill="#0052B4"/></svg>