<svg xmlns="http://www.w3.org/2000/svg" width="21.333" height="21.333" viewBox="0 0 16 16"><path d="M16 8A8 8 0 1 1 0 8a8 8 0 1 1 16 0zm0 0" fill="#F0F0F0"/><path d="M.277 10.086a7.984 7.984 0 0 0 2.852 4.262v-4.262zm7.028 5.884L8 16a8.003 8.003 0 0 0 7.723-5.914H7.305zm8.418-10.056A8.003 8.003 0 0 0 8 0l-.695.03v5.883zM3.13 1.652A7.995 7.995 0 0 0 .277 5.914H3.13zm0 0" fill="#D80027"/><path d="M15.934 6.957H6.262V.19a7.97 7.97 0 0 0-2.086.781v5.984H.066a8.364 8.364 0 0 0 0 2.088h4.11v5.984a7.97 7.97 0 0 0 2.086.781V9.043h9.672a8.308 8.308 0 0 0 0-2.086zm0 0" fill="#0052B4"/></svg>