<svg xmlns="http://www.w3.org/2000/svg" width="21.333" height="21.333" viewBox="0 0 16 16"><path d="M16 8A8 8 0 1 1 0 8a8 8 0 1 1 16 0zm0 0" fill="#F0F0F0"/><path d="M7.652 8H16c0-.723-.098-1.422-.277-2.086h-8.07zm0-4.176h7.172a8.04 8.04 0 0 0-1.844-2.086H7.652zM8 16a7.98 7.98 0 0 0 4.98-1.738H3.02A7.98 7.98 0 0 0 8 16zm-6.824-3.824h13.648c.395-.645.7-1.344.898-2.1H.277a8.16 8.16 0 0 0 .898 2.1zm0 0" fill="#D80027"/><path d="M3.707 1.25h.727l-.676.492.258.797-.68-.492-.676.492.223-.687a7.96 7.96 0 0 0-1.551 1.727h.234l-.434.316-.19.34.203.637-.383-.28-.262.62.227.7h.84l-.68.492.258.797-.676-.492-.406.297A7.62 7.62 0 0 0 0 8h8V0a7.93 7.93 0 0 0-4.293 1.25zm.31 5.95l-.68-.492-.676.492.258-.797-.676-.492h.836l.258-.797.262.797h.836l-.676.492zm-.258-3.125l.258.797-.68-.496-.676.496.258-.797-.676-.496h.836l.258-.797.262.797h.836zM6.887 7.2l-.68-.492-.68.492.262-.797-.68-.492h.84l.258-.797.258.797h.84l-.68.492zm-.262-3.125l.262.797-.68-.496-.68.496.262-.797-.68-.496h.84l.258-.797.258.797h.84zm0-2.332l.262.797-.68-.492-.68.492.262-.797-.68-.492h.84l.258-.797.258.797h.84zm0 0" fill="#0052B4"/></svg>