<svg xmlns="http://www.w3.org/2000/svg" width="32" height="32"  xmlns:v="https://vecta.io/nano"><path d="M14.266.896C7.027 1.698 1.207 7.508.418 14.596c-.785 7.395 3.46 14 9.914 16.52.473.156.94-.16.94-.8v-2.518s-.633.156-1.414.156c-2.203 0-3.148-1.887-3.305-2.988-.156-.63-.477-1.102-.945-1.574-.473-.156-.633-.156-.633-.31 0-.316.473-.316.633-.316.945 0 1.734 1.102 2.047 1.574.785 1.258 1.73 1.574 2.203 1.574.63 0 1.102-.16 1.414-.316.16-1.102.633-2.203 1.574-2.832-3.617-.785-6.293-2.832-6.293-6.293 0-1.73.797-3.46 1.887-4.723-.156-.316-.312-1.102-.312-2.203 0-.63 0-1.574.473-2.52 0 0 2.203 0 4.402 2.047.8-.316 1.898-.473 2.992-.473s2.203.156 3.145.473c2.047-2.047 4.406-2.047 4.406-2.047.316.945.316 1.902.316 2.52 0 1.258-.16 1.887-.316 2.203 1.102 1.258 1.887 2.832 1.887 4.723 0 3.457-2.672 5.508-6.293 6.293.945.785 1.574 2.203 1.574 3.617v4.094c0 .47.473.938 1.102.785 5.82-2.363 9.898-8.023 9.898-14.633 0-9.437-8.023-16.836-17.457-15.734zm0 0" fill="#eceff4"/></svg>