<svg xmlns="http://www.w3.org/2000/svg" width="42.667" height="42.667" viewBox="0 0 32 32"><path d="M16 32C7.164 32 0 24.836 0 16S7.164 0 16 0s16 7.164 16 16-7.164 16-16 16zm0 0" fill="#FFF"/><path d="M14.266.488c-7.238.79-13.06 6.61-13.848 13.69-.785 7.395 3.46 14 9.914 16.52.473.156.94-.16.94-.79v-2.516s-.63.156-1.414.156c-2.203 0-3.148-1.887-3.305-2.988-.156-.63-.473-1.102-.945-1.574-.47-.156-.63-.156-.63-.312 0-.316.473-.316.63-.316.945 0 1.734 1.102 2.047 1.574.785 1.258 1.73 1.574 2.203 1.574.63 0 1.102-.16 1.414-.316.16-1.102.633-2.203 1.574-2.832-3.617-.785-6.293-2.832-6.293-6.293 0-1.73.79-3.46 1.887-4.72-.156-.316-.312-1.102-.312-2.203 0-.63 0-1.574.473-2.52 0 0 2.203 0 4.402 2.047.79-.316 1.89-.473 2.992-.473s2.203.156 3.145.473c2.047-2.047 4.406-2.047 4.406-2.047.316.945.316 1.89.316 2.52 0 1.258-.16 1.887-.316 2.203 1.102 1.258 1.887 2.832 1.887 4.72 0 3.46-2.672 5.508-6.293 6.293.945.785 1.574 2.203 1.574 3.617v4.094c0 .47.473.94 1.102.785 5.82-2.36 9.9-8.023 9.9-14.633 0-9.437-8.023-16.836-17.46-15.734zm0 0" fill="#2E2E2E"/></svg>