<svg xmlns="http://www.w3.org/2000/svg" width="42.667" height="42.667" viewBox="0 0 32 32"><path d="M16 32C7.164 32 0 24.836 0 16S7.164 0 16 0s16 7.164 16 16-7.164 16-16 16zm0 0" fill="#2E2E2E"/><path d="M11.906 6.238a5.68 5.68 0 0 0-5.668 5.668v8.188a5.68 5.68 0 0 0 5.668 5.668h8.188a5.68 5.68 0 0 0 5.668-5.668v-8.187a5.68 5.68 0 0 0-5.668-5.668zm0 1.504h8.188a4.15 4.15 0 0 1 4.164 4.164v8.188a4.15 4.15 0 0 1-4.164 4.164h-8.187a4.15 4.15 0 0 1-4.164-4.164v-8.187a4.15 4.15 0 0 1 4.164-4.164zm9.723 1.5c-.62 0-1.125.504-1.125 1.13s.504 1.125 1.125 1.125 1.13-.504 1.13-1.125-.504-1.13-1.13-1.13zM16 10.746c-2.895 0-5.254 2.36-5.254 5.254s2.36 5.254 5.254 5.254 5.254-2.36 5.254-5.254-2.36-5.254-5.254-5.254zm0 1.5c2.082 0 3.754 1.672 3.754 3.754S18.082 19.754 16 19.754 12.246 18.082 12.246 16s1.672-3.754 3.754-3.754zm0 0" fill="#FFF"/></svg>