<svg xmlns="http://www.w3.org/2000/svg" xmlns:xlink="http://www.w3.org/1999/xlink" width="42.667" height="42.667" viewBox="0 0 32 32"><use xlink:href="#B" fill="#2E2E2E"/><use xlink:href="#B" fill="#2E3440"/><defs><path id="B" d="M.398 15.96c0 14.145 16.48 21.04 26.457 11.055 4.023-3.953 5.56-9.04 4.344-14.215C29.398 4.512 21.297-.922 13.055.56 8.84 1.28 4.617 4.305 2.398 8.12c-1.68 2.887-2 4.23-2 7.84zM18.223 9.2c-3.152.465-4.078 1.738-3.48 4.816.664 3.426 1.336 4.223 3.28 3.68 2.61-.605 3.953-2.344 3.68-4.56-.398-2.418.2-2.418 1.746.2 2.344 3.953-.13 8.574-5.762 10.922-4.223 1.805-4.88 1.47-6.496-2.816-.88-2.082-1.68-5.363-1.887-7.305-.32-3.082-.2-3.617 1.36-5.152 1.945-1.945 5.078-2.28 8.305-.937a102.6 102.6 0 011.871.801l-2.61.336zm-2.613 1.87c.88-.934 3.36-.46 4.56.883 2.273 2.48-.398 5.023-3.36 3.078-1.602-1.07-2.215-3.016-1.2-3.953zm0 0"/></defs></svg>