<svg xmlns="http://www.w3.org/2000/svg" xmlns:xlink="http://www.w3.org/1999/xlink" preserveAspectRatio="xMidYMid meet" width="40" height="40"><defs><path d="M.5 19.95c0 17.68 20.6 26.3 33.07 13.82C38.6 28.83 40.52 22.47 39 16 36.75 5.64 26.62-1.15 16.32.7 11.05 1.6 5.77 5.38 3 10.15.9 13.76.5 15.44.5 19.95zm22.28-8.45c-3.94.58-5.1 2.17-4.35 6.02.83 4.28 1.67 5.28 4.1 4.6 3.26-.76 4.94-2.93 4.6-5.7-.5-3.02.25-3.02 2.18.25 2.93 4.94-.16 10.72-7.2 13.65-5.28 2.26-6.1 1.84-8.12-3.52-1.1-2.6-2.1-6.7-2.36-9.13-.4-3.85-.25-4.52 1.7-6.44 2.43-2.43 6.35-2.85 10.38-1.17.3.12 1.1.46 2.34 1l-3.26.42zm-3.27 2.34c1.1-1.17 4.2-.58 5.7 1.1 2.84 3.1-.5 6.28-4.2 3.85-2-1.34-2.77-3.77-1.5-4.94z" id="a"/></defs><use xlink:href="#a" fill="#2e2e2e"/><use xlink:href="#a" fill-opacity="0" stroke="#000" stroke-opacity="0"/><use xlink:href="#B" fill-opacity="0" href="#a"/><use xlink:href="#B" fill-opacity="0" stroke="#000" stroke-opacity="0" href="#a"/></svg>