<svg xmlns="http://www.w3.org/2000/svg" width="32" height="32"  xmlns:v="https://vecta.io/nano"><path d="M4.358 1.228c-2.37 0-4.09 1.44-4.09 3.368 0 1.961 1.759 3.448 4.09 3.448 2.37 0 4.09-1.446 4.09-3.487-.113-1.955-1.8-3.327-4.09-3.327zM.943 9.41a.68.68 0 0 0-.683.683v19.803a.68.68 0 0 0 .202.481c.13.128.304.202.481.202h6.831c.37 0 .683-.304.683-.683v-19.8c0-.379-.304-.675-.683-.683zm10.24 0c-.37 0-.675.304-.683.683v19.803c0 .379.313.683.683.683h6.148c.206 0 .354-.072.481-.202s.202-.304.202-.481V19.313c0-1.599 1.239-2.926 2.829-3.053.082-.016.16-.016.241-.016a1.255 1.255 0 0 1 .249.016c1.584.123 2.819 1.44 2.819 3.053v10.585c0 .206.072.354.202.481s.298.202.481.202h6.148a.68.68 0 0 0 .481-.202c.128-.13.202-.298.202-.481V18.294c0-4.419-2.37-8.88-7.66-8.88a9.25 9.25 0 0 0-5.312 1.704v-1.02a.7.7 0 0 0-.683-.683zm0 0" fill="#eceff4"/></svg>