<svg xmlns="http://www.w3.org/2000/svg" width="42.667" height="42.667" viewBox="0 0 32 32"><path d="M16 31.68C7.34 31.68.32 24.66.32 16S7.34.32 16 .32 31.68 7.34 31.68 16 24.66 31.68 16 31.68zm0 0" fill="#2E3440"/><path d="M10.36 8.55c-1.152 0-1.988.7-1.988 1.637 0 .953.855 1.676 1.988 1.676 1.152 0 1.988-.703 1.988-1.695-.055-.95-.875-1.617-1.988-1.617zM8.7 12.527c-.184 0-.332.148-.332.332v9.625c0 .086.035.172.098.234s.148.098.234.098h3.32c.18 0 .332-.148.332-.332V12.86c0-.184-.148-.328-.332-.332zm4.977 0c-.18 0-.328.148-.332.332v9.625c0 .184.152.332.332.332h2.988c.1 0 .172-.035.234-.098s.098-.148.098-.234V17.34c0-.777.602-1.422 1.375-1.484.04-.008.078-.008.117-.008a.61.61 0 01.121.008c.77.06 1.37.7 1.37 1.484v5.145c0 .1.035.172.098.234s.145.098.234.098H23.3c.086 0 .172-.035.234-.098s.098-.145.098-.234v-5.64c0-2.148-1.152-4.316-3.723-4.316-.926.004-1.828.293-2.582.828v-.496a.34.34 0 00-.332-.332zm0 0" fill="#FFF"/></svg>