<svg xmlns="http://www.w3.org/2000/svg" width="42.667" height="42.667" viewBox="0 0 32 32"><path d="M16 31.68C7.34 31.68.32 24.66.32 16S7.34.32 16 .32 31.68 7.34 31.68 16 24.66 31.68 16 31.68zm0 0" fill="#2E2E2E"/><path d="M10.36 8.55c-1.152 0-1.988.69-1.988 1.637 0 .953.855 1.676 1.988 1.676 1.152 0 1.988-.703 1.988-1.695-.055-.95-.875-1.617-1.988-1.617zM8.7 12.527a.334.334 0 0 0-.332.332v9.625c0 .184.148.332.332.332h3.32c.18 0 .332-.148.332-.332V12.86a.336.336 0 0 0-.332-.332zm4.977 0a.336.336 0 0 0-.332.332v9.625c0 .184.152.332.332.332h2.988a.331.331 0 0 0 .332-.332V17.34a1.49 1.49 0 0 1 1.375-1.484c.04-.008.078-.008.117-.008a.65.65 0 0 1 .121.008c.77.06 1.37.7 1.37 1.484v5.145c0 .184.148.332.332.332H23.3a.331.331 0 0 0 .332-.332v-5.64c0-2.148-1.152-4.316-3.723-4.316a4.48 4.48 0 0 0-2.582.828v-.496a.334.334 0 0 0-.332-.332zm0 0" fill="#FFF"/></svg>