<svg xmlns="http://www.w3.org/2000/svg" width="42.667" height="42.667" viewBox="0 0 32 32"><path d="M16 32C7.164 32 0 24.836 0 16S7.164 0 16 0s16 7.164 16 16-7.164 16-16 16zm0 0" fill="#2E2E2E"/><path d="M12.828 23.516c0 .402-.22.645-.523.645-.11 0-.23-.03-.355-.094l-4.94-2.504c-.29-.145-.527-.535-.527-.863V8.434c0-.324.172-.516.418-.516a.64.64 0 0 1 .285.074l.172.1h.004l5.445 2.758c.008.004.016.016.023.02zm5.703-14.82l.332-.55a.67.67 0 0 1 .559-.305c.05 0 .105.008.156.02.04.012.082.023.12.047l5.746 2.906.004.004c.04.03.05.07.03.102l-6.305 10.375-3.79-7.422zm-4.797 9.848V12.63l4.07 7.977-3.664-1.855zm11.785 4.973c0 .38-.223.594-.555.594a1.14 1.14 0 0 1-.5-.133l-.82-.414-3.66-1.855 5.535-9.11zm0 0" fill="#FFF"/></svg>