<svg xmlns="http://www.w3.org/2000/svg" width="42.667" height="42.667" viewBox="0 0 32 32"><path d="M16 32C7.164 32 0 24.836 0 16S7.164 0 16 0s16 7.164 16 16-7.164 16-16 16zm0 0" fill="#2E3440"/><path d="M12.828 23.516c0 .402-.22.645-.523.645a.78.78 0 01-.355-.094L7 21.563c-.31-.18-.508-.504-.527-.863V8.434c0-.324.172-.516.418-.516.102.004.2.027.285.074l.172.102h.004l5.445 2.758c.008.004.016.016.023.02zm5.703-14.82l.332-.55c.12-.188.332-.3.56-.305.05 0 .105.008.156.02.04.012.082.023.12.047l5.746 2.906.004.004c.04.03.047.07.027.105l-6.305 10.375-3.8-7.426zm-4.797 9.848V12.63l4.07 7.977-3.664-1.852zm11.785 4.973c0 .383-.223.594-.555.594a1.11 1.11 0 01-.5-.133l-.82-.414-3.66-1.852 5.535-9.102zm0 0" fill="#FFF"/></svg>