<svg xmlns="http://www.w3.org/2000/svg" width="32" height="32"  xmlns:v="https://vecta.io/nano"><path d="M10.761 28.409c0 .66-.361 1.059-.858 1.059a1.28 1.28 0 0 1-.583-.154l-8.125-4.11c-.509-.295-.834-.827-.865-1.416V3.655c0-.532.282-.847.686-.847.167.007.328.044.468.121l.282.167h.007l8.937 4.527c.013.007.026.026.038.033zm9.361-24.325l.545-.903c.197-.309.545-.492.919-.501.082 0 .172.013.256.033.066.02.135.038.197.077l9.431 4.77.007.007c.066.049.077.115.044.172L21.172 24.769 14.935 12.58zm-7.874 16.164v-9.707l6.68 13.093-6.014-3.04zm19.343 8.162c0 .629-.366.975-.911.975a1.822 1.822 0 0 1-.821-.218l-1.346-.68-6.007-3.04 9.085-14.94zm0 0" fill="#eceff4"/></svg>