<svg xmlns="http://www.w3.org/2000/svg" xmlns:xlink="http://www.w3.org/1999/xlink" preserveAspectRatio="xMidYMid meet" width="40" height="40"><defs><path d="M20.03 39.7a19.66 19.66 0 1 1 0-39.32 19.66 19.66 0 1 1 0 39.32z" id="a"/><path d="M11.26 28.97V12.52h2.37v16.45h-2.37z" id="b"/><path d="M23.5 12.52c6.08 0 8.75 4.35 8.75 8.23 0 4.23-3.3 8.24-8.72 8.24H17.1V12.52h6.4zm-.26 14.33c5.36 0 6.6-4.07 6.6-6.1 0-3.3-2.1-6.1-6.72-6.1h-3.64v12.2h3.77z" id="c"/><path d="M12.44 10.65a1.56 1.56 0 0 1-1.55-1.56c0-.86.7-1.55 1.55-1.55S14 8.25 14 9.1a1.57 1.57 0 0 1-1.56 1.56z" id="d"/></defs><use xlink:href="#a" fill="#2e2e2e"/><use xlink:href="#a" fill-opacity="0" stroke="#000" stroke-opacity="0"/><use xlink:href="#b" fill="#fff"/><use xlink:href="#b" fill-opacity="0" stroke="#000" stroke-opacity="0"/><use xlink:href="#c" fill="#fff"/><use xlink:href="#c" fill-opacity="0" stroke="#000" stroke-opacity="0"/><use xlink:href="#d" fill="#fff"/><use xlink:href="#d" fill-opacity="0" stroke="#000" stroke-opacity="0"/></svg>