<svg xmlns="http://www.w3.org/2000/svg" xmlns:xlink="http://www.w3.org/1999/xlink" width="42.667" height="42.667" viewBox="0 0 32 32"><use xlink:href="#B" fill="#2E2E2E"/><use xlink:href="#B" fill="#2E3440"/><path d="M9.008 23.176v-13.16h1.895v13.16zm9.792-13.16c4.863 0 7 3.48 7 6.586 0 3.383-2.64 6.6-6.977 6.6H13.68V10.016zm-.207 11.465c4.285 0 5.277-3.258 5.277-4.88 0-2.64-1.68-4.883-5.375-4.883h-2.9v9.762zM9.953 8.52a1.25 1.25 0 01-1.242-1.246 1.24 1.24 0 011.242-1.242c.68 0 1.246.563 1.246 1.25a1.25 1.25 0 01-1.246 1.246zm0 0" fill="#FFF"/><defs><path id="B" d="M16.023 31.762A15.73 15.73 0 01.297 16.031C.297 7.344 7.336.305 16.023.305a15.73 15.73 0 0115.73 15.727c0 8.688-7.043 15.73-15.73 15.73zm0 0"/></defs></svg>