<svg xmlns="http://www.w3.org/2000/svg" width="42.667" height="42.667" viewBox="0 0 32 32"><path d="M16 31.36A15.36 15.36 0 0 1 .641 16 15.36 15.36 0 0 1 16 .641a15.36 15.36 0 0 1 0 30.719zm0 0" fill="#2E2E2E"/><path d="M7.2 7.2v17.6h17.6V7.2zm1.6 1.6h14.4v14.4H8.8zm9.73 2.402c-1.027 0-1.38.73-1.38 1.227v1.305c0 .664.363 1.3 1.297 1.3 1.57-.004 1.38-1.19 1.38-2.016H18.6v.434h.727c0 .645-.305 1.078-.875 1.078-.453 0-.715-.395-.715-.937v-1.086c0-.504.473-.793.793-.793a.89.89 0 0 1 .793.504l.434-.293s-.21-.723-1.227-.723zm-4.465 2.47l-2.863.03v.32c.62.12.883.063.883.97v4.422c0 .918-.262.848-.883.97v.332l1.355-.043 1.438.043v-.332c-.805-.113-1.047-.023-1.047-.97v-1.867c.273.02.504.016.867.016.684 1.23 1.336 2.145 1.707 2.578.676.813 1.754.695 2.016.574v-.3c-.402-.004-.81-.273-1.098-.594a13.1 13.1 0 0 1-1.699-2.375c.902-.223 1.578-1.078 1.578-1.922 0-1.266-.977-1.852-2.254-1.852zm-.21.512c.945 0 1.508.492 1.508 1.398 0 .887-.602 1.48-1.61 1.48a9.01 9.01 0 0 1-.805-.031v-2.816c.262-.03.605-.03.906-.03zm0 0" fill="#FFF"/></svg>