<svg xmlns="http://www.w3.org/2000/svg" width="42.667" height="42.667" viewBox="0 0 32 32"><path d="M16 16.16c-.102 0-.16-.07-.16-.16s.07-.16.16-.16.16.07.16.16-.07.16-.16.16zm0 0" fill="#FFF"/><path d="M16 .512A15.49 15.49 0 00.512 16 15.49 15.49 0 0016 31.488 15.49 15.49 0 0031.488 16 15.49 15.49 0 0016 .512zm-2.816 5.633h11.97l-.72.62c0 .027.016.055.016.082v3.72a1.38 1.38 0 01.703 1.211V16a1.41 1.41 0 01-1.41 1.406A1.41 1.41 0 0122.336 16v-4.223a1.38 1.38 0 01.703-1.211V7.953l-2.527 2.168a3.99 3.99 0 01.418 1.824c0 1.914-1.07 2.863-2.133 3.7-.332.336-.72.703-.72 1.273 0 .563.387.88.668 1.105l.906.723c1.117.96 2.137 1.84 2.137 3.62 0 2.43-2.316 4.887-6.684 4.887-3.68 0-5.457-1.78-5.457-3.7 0-.926.457-2.246 1.957-3.152 1.57-.98 3.703-1.113 4.852-1.203-.36-.465-.766-.95-.766-1.758 0-.43.133-.7.258-1.008l-.816.063c-2.676 0-4.203-2.027-4.215-4.035H6.145zm2.3 2.28a2.34 2.34 0 00-1.773.859c-.43.535-.562 1.23-.562 1.898 0 1.734 1 4.605 3.176 4.605a2.58 2.58 0 001.73-.727c.578-.598.637-1.422.637-1.883 0-1.863-1.094-4.758-3.207-4.758zM16.73 19.95c-.223 0-1.598.05-2.66.414-.562.2-2.18.824-2.18 2.664s1.742 3.152 4.46 3.152c2.438 0 3.727-1.195 3.727-2.793 0-1.316-.824-2.016-2.758-3.398-.203-.027-.332-.027-.594-.027zm0 0" fill="#2E3440"/></svg>