<svg xmlns="http://www.w3.org/2000/svg" width="42.667" height="42.667" viewBox="0 0 32 32"><path d="M16 31.36A15.36 15.36 0 0 1 .641 16 15.36 15.36 0 0 1 16 .641a15.36 15.36 0 0 1 0 30.719zm0 0" fill="#2E2E2E"/><path d="M25.922 10.477a8.11 8.11 0 0 1-2.34.641 4.07 4.07 0 0 0 1.789-2.25c-.785.465-1.656.8-2.582.984a4.06 4.06 0 0 0-2.973-1.285 4.07 4.07 0 0 0-4.07 4.07c0 .32.035.63.105.93a11.57 11.57 0 0 1-8.39-4.254 4.04 4.04 0 0 0-.551 2.047c0 1.4.72 2.656 1.813 3.387a4.03 4.03 0 0 1-1.844-.508v.05a4.073 4.073 0 0 0 3.262 3.992 4.02 4.02 0 0 1-1.07.141 3.8 3.8 0 0 1-.766-.074 4.074 4.074 0 0 0 3.8 2.828 8.15 8.15 0 0 1-5.055 1.742c-.328 0-.652-.02-.97-.06a11.46 11.46 0 0 0 6.238 1.832c7.488 0 11.582-6.203 11.582-11.582 0-.176-.004-.352-.012-.527a8.26 8.26 0 0 0 2.031-2.105zm0 0" fill="#FFF"/></svg>