<svg xmlns="http://www.w3.org/2000/svg" width="42.667" height="42.667" viewBox="0 0 32 32"><path d="M16 31.36A15.36 15.36 0 01.641 16C.64 7.52 7.52.64 16 .64 24.434.71 31.234 7.566 31.234 16S24.434 31.293 16 31.36zm0 0" fill="#2E3440"/><path d="M25.922 10.477c-.742.332-1.53.547-2.34.64.852-.508 1.484-1.305 1.79-2.25-.785.465-1.656.8-2.582.984-.77-.82-1.848-1.29-2.973-1.285a4.07 4.07 0 00-4.07 4.07c0 .32.035.63.105.93a11.56 11.56 0 01-8.391-4.254c-.363.62-.555 1.328-.55 2.047 0 1.402.72 2.656 1.813 3.387a4.03 4.03 0 01-1.844-.508v.05c0 1.938 1.363 3.605 3.262 3.992-.348.094-.707.14-1.07.14-.258 0-.512-.023-.766-.074.53 1.656 2.06 2.793 3.8 2.828-1.44 1.133-3.223 1.746-5.055 1.742a8.03 8.03 0 01-.973-.059c1.86 1.2 4.027 1.836 6.238 1.832 7.488 0 11.582-6.203 11.582-11.582 0-.176-.004-.352-.012-.527.797-.578 1.484-1.29 2.03-2.105zm0 0" fill="#FFF"/></svg>