<svg xmlns="http://www.w3.org/2000/svg" width="32" height="32"  xmlns:v="https://vecta.io/nano"><path d="M31.736 6.436a12.59 12.59 0 0 1-3.709 1.015c1.351-.805 2.352-2.069 2.837-3.567a12.99 12.99 0 0 1-4.093 1.56 6.44 6.44 0 0 0-4.713-2.037 6.452 6.452 0 0 0-6.452 6.452c0 .507.055.999.166 1.474A18.325 18.325 0 0 1 2.472 4.589c-.575.983-.88 2.105-.872 3.245a6.47 6.47 0 0 0 2.874 5.369 6.388 6.388 0 0 1-2.923-.805v.079c0 3.072 2.161 5.715 5.171 6.328-.552.149-1.121.222-1.696.222-.409 0-.812-.036-1.214-.117.84 2.625 3.265 4.427 6.024 4.483-2.283 1.796-5.109 2.768-8.013 2.761a12.729 12.729 0 0 1-1.542-.094 18.18 18.18 0 0 0 9.888 2.904c11.87 0 18.36-9.833 18.36-18.36a18.31 18.31 0 0 0-.019-.835c1.263-.916 2.352-2.045 3.218-3.337zm0 0" fill="#eceff4"/></svg>